# xmcd
#
# Track frame offsets: 
#        150
#        19975
#        34154
#        46304
#        61686
#        76571
#        108761
#        128791
#        144151
#        157581
#        180453
#        198880
#        216881
#        251802
#        274670
#        291992
#
# Disc length: 4587 seconds
#
# Revision: 0
# Processed by: cddbd v1.5.2PL0 Copyright (c) Steve Scherf et al.
# Submitted via: ExactAudioCopyFreeDBPlugin 1.0
#
DISCID=cf11e910
DTITLE=Lonnie Dale's Road Band - LDRB Live 2011
DYEAR=2011
DGENRE=Country
TTITLE0=Jones - Rollins - The Race Is On
TTITLE1=Paul Craft - Brother Jukebox
TTITLE2=Paul Cordie - Highway 40 Blues
TTITLE3=Kostas - Wayland Patton - Turn It On, Turn It Up
TTITLE4=Dale - Stäblein - Let My Fingers Do The Walking
TTITLE5=Carter - Cash - Johnny Cash Medley
TTITLE6=Carter - Esswoth - McBride - Trick Rider
TTITLE7=Anglin - Anglin - Wright - Ashes Of Love
TTITLE8=Gill - Nielson - Liza Jane
TTITLE9=Algers - Brooks - That Summer
TTITLE10=Dwight Yoakam - I Sang Dixie
TTITLE11=Gary Lee - The Rodeo Song
TTITLE12=Ronnnie Rogers - Dixieland Delight
TTITLE13=Don Von Tress - Achy Breaky Heart
TTITLE14=Garth Brooks - Blazy - If Tomorrow Never Comes
TTITLE15=Terry Anderson - Keep Your Hands To Yourself
EXTD=
EXTT0=
EXTT1=
EXTT2=
EXTT3=
EXTT4=
EXTT5=
EXTT6=
EXTT7=
EXTT8=
EXTT9=
EXTT10=
EXTT11=
EXTT12=
EXTT13=
EXTT14=
EXTT15=
PLAYORDER=
